<?xml version="1.0" encoding="utf-8"?>
<!-- Generator: Adobe Illustrator 19.0.0, SVG Export Plug-In . SVG Version: 6.00 Build 0)  -->
<svg version="1.1" id="Layer_1" xmlns="http://www.w3.org/2000/svg" xmlns:xlink="http://www.w3.org/1999/xlink" x="0px" y="0px"
	 width="19.6972px" height="19.6954px" viewBox="-0.00021 0.0002 19.6972 19.6954"
	 style="enable-background:new -0.00021 0.0002 19.6972 19.6954;" xml:space="preserve">
<path style="fill:#D22856;" d="M9.84839,0.0002c-3.50879,0-7.02539,0.628-8.30273,1.87797
	C0.48804,2.91821,0.13355,4.7522,0.01636,5.91333c0,0-0.0166,0.11426-0.0166,0.16504c0,0.4541,0.36914,0.81933,0.81933,0.81933
	c0.05371,0,2.02832-0.16113,3.21778-0.25878C4.06616,6.63501,4.09546,6.6311,4.1228,6.62231
	c0.44336-0.01269,0.80079-0.37207,0.80079-0.81933l0.00293-1.61719c0-0.5,0.40722-0.90137,0.90722-0.90137h8.02735
	c0.499,0,0.9072,0.40137,0.9072,0.90137l0.003,1.61719c0,0.44726,0.3554,0.80762,0.8017,0.82031
	c0.0274,0.00879,0.0557,0.0127,0.085,0.0166c1.1904,0.09766,3.164,0.25879,3.2168,0.25879c0.4511,0,0.8222-0.36523,0.8222-0.81933
	c0-0.05079-0.0175-0.16504-0.0175-0.16504c-0.1182-1.16114-0.4727-2.99512-1.5303-4.03516
	C16.87279,0.6282,13.35619,0.0002,9.84839,0.0002z M9.84839,10.67017c-0.9082,0-1.64355,0.73242-1.64355,1.63965
	s0.73435,1.64161,1.64355,1.64161c0.9053,0,1.6406-0.7334,1.6406-1.64161C11.48799,11.40356,10.75369,10.67017,9.84839,10.67017z
	 M8.61599,6.97485V5.95142c0-0.56739-0.45998-1.02637-1.02541-1.02637S6.56714,5.38403,6.56714,5.95142v1.02343l-5.53711,5.91309
	c-0.38184,0.37598-0.61914,0.89453-0.61914,1.46973v1.64648c0,0.90723,0.73438,1.64258,1.64063,1.64258h0.41113v1.02344
	c0,0.56738,0.45996,1.02539,1.02637,1.02539c0.56542,0,1.02441-0.45801,1.02441-1.02539v-1.02344h10.66896v1.02344
	c0,0.56738,0.4599,1.02539,1.0244,1.02539c0.5674,0,1.0264-0.45801,1.0264-1.02539v-1.02344h0.4111
	c0.9043,0,1.6396-0.73438,1.6396-1.64258v-1.64648c0-0.5752-0.2363-1.09375-0.6181-1.46973l-5.5361-5.91309V5.95142
	c0-0.56739-0.459-1.02637-1.0235-1.02637c-0.5674,0-1.0273,0.45898-1.0273,1.02637v1.02343H8.61599z M9.84839,9.02759
	c1.8135,0,3.2813,1.46875,3.2813,3.28222c0,1.81446-1.4678,3.28223-3.2813,3.28223c-1.81348,0-3.28125-1.46777-3.28125-3.28223
	C6.56714,10.49634,8.03394,9.02759,9.84839,9.02759z"/>
</svg>
