<?xml version="1.0" encoding="utf-8"?>
<!-- Generator: Adobe Illustrator 19.0.0, SVG Export Plug-In . SVG Version: 6.00 Build 0)  -->
<svg version="1.1" id="Layer_1" xmlns="http://www.w3.org/2000/svg" xmlns:xlink="http://www.w3.org/1999/xlink" x="0px" y="0px"
	 width="78.6718px" height="63.789px" viewBox="0.00004 0.00003 78.6718 63.789"
	 style="enable-background:new 0.00004 0.00003 78.6718 63.789;" xml:space="preserve">
<g>
	<path style="fill:#EFEFEF;" d="M34.96684,7.06303l-4.2539-7.063c-2.441,1.4951-30.7129,12.207-30.7129,39.6172
		c0,7.2304,0.3359,24.1718,18.8999,24.1718c11.187,0,13.9399-10.2793,13.9399-13.584c0-21.977-21.3818-14.1777-21.3818-14.1777
		C11.45804,17.95703,31.26313,9.18413,34.96684,7.06303z"/>
</g>
<g>
	<path style="fill:#EFEFEF;" d="M78.67184,7.06303l-4.2539-7.063c-2.43941,1.4951-30.7129,12.207-30.7129,39.6172
		c0,7.2304,0.337,24.1718,18.9004,24.1718c11.1866,0,13.9385-10.2793,13.9385-13.584c0-21.977-21.38091-14.1777-21.38091-14.1777
		C55.16504,17.95703,74.96873,9.18413,78.67184,7.06303z"/>
</g>
</svg>
