<?xml version="1.0" encoding="utf-8"?>
<!-- Generator: Adobe Illustrator 19.0.0, SVG Export Plug-In . SVG Version: 6.00 Build 0)  -->
<svg version="1.1" id="Layer_1" xmlns="http://www.w3.org/2000/svg" xmlns:xlink="http://www.w3.org/1999/xlink" x="0px" y="0px"
	 width="17.9882px" height="13.9653px" viewBox="-0.0002 0.00001 17.9882 13.9653"
	 style="enable-background:new -0.0002 0.00001 17.9882 13.9653;" xml:space="preserve">
<g>
	<g>
		<g>
			<path style="fill:#D22856;" d="M14.9138,1.81396C16.1111,0.81592,15.8162,0,14.2566,0H3.7312
				C2.17066,0,1.87671,0.81592,3.07398,1.81396l3.74219,3.11817c1.19723,0.99805,3.15823,0.99805,4.35453,0L14.9138,1.81396z"/>
		</g>
		<g>
			<path style="fill:#D22856;" d="M11.9128,7.04395C10.7146,8.0415,9.7175,8.86963,9.6951,8.87939c0,0,0,0-0.0205,0.01367
				C9.6013,8.94971,9.5232,8.99463,9.4402,9.02881C9.407,9.04346,9.3738,9.06299,9.3396,9.07666
				c-0.1094,0.03418-0.2227,0.05859-0.335,0.05859c-0.0029,0-0.0068,0.00195-0.0097,0.00195c0,0,0,0-0.001,0
				c-0.001,0-0.001,0-0.001,0c-0.0029,0-0.0068-0.00195-0.0097-0.00195C8.8699,9.1333,8.7585,9.11084,8.6482,9.07666
				C8.614,9.06299,8.5798,9.04346,8.5476,9.02881c-0.083-0.03418-0.1592-0.0791-0.2344-0.13574
				C8.2927,8.87939,8.2927,8.87939,8.2927,8.87939C8.2712,8.86768,7.2732,8.0415,6.07495,7.04395L2.17847,3.7959
				C0.97925,2.79785-0.00024,3.25684-0.00024,4.81592v6.31543c0,1.55957,1.27539,2.83398,2.83496,2.83398H15.1531
				c1.5596,0,2.8349-1.27441,2.8349-2.83398V4.81592c0-1.55908-0.9795-2.01807-2.1777-1.02002L11.9128,7.04395z"/>
		</g>
	</g>
</g>
</svg>
