<?xml version="1.0" encoding="utf-8"?>
<!-- Generator: Adobe Illustrator 19.0.0, SVG Export Plug-In . SVG Version: 6.00 Build 0)  -->
<svg version="1.1" id="Layer_1" xmlns="http://www.w3.org/2000/svg" xmlns:xlink="http://www.w3.org/1999/xlink" x="0px" y="0px"
	 width="26.752px" height="26.752px" viewBox="-0.00002 -0.00002 26.752 26.752"
	 style="enable-background:new -0.00002 -0.00002 26.752 26.752;" xml:space="preserve">
<path style="fill:#F25B26;" d="M15.49707,13.37598l10.8144-10.814c0.586-0.5849,0.586-1.5351,0-2.1211
	c-0.5859-0.5859-1.5351-0.5859-2.121,0l-10.8145,10.814l-10.814-10.8159c-0.5859-0.5859-1.5351-0.5859-2.1211,0
	c-0.5859,0.5849-0.5859,1.5351,0,2.1211l10.814,10.8149l-10.8159,10.8155c-0.5859,0.5859-0.5859,1.5351,0,2.121
	c0.293,0.293,0.6772,0.4385,1.061,0.4385c0.3838,0,0.7681-0.1455,1.0611-0.4385l10.8149-10.8144l10.8145,10.8144
	c0.2929,0.293,0.6767,0.4395,1.0605,0.4395c0.3838,0,0.7676-0.1465,1.0605-0.4395c0.586-0.5859,0.586-1.5351,0-2.121
	L15.49707,13.37598z"/>
</svg>
